<svg id="Layer_1" data-name="Layer 1" xmlns="http://www.w3.org/2000/svg" viewBox="0 0 512 512"><defs><style>.cls-1{fill:#898989;}</style></defs><title>share-arrow-2-other</title><path class="cls-1" d="M325.89,421.8H5.72A5.71,5.71,0,0,1,0,416.08V95.91a5.72,5.72,0,0,1,9.76-4l94.76,94.75c44.72-46.82,107.88-73.56,174.27-73.56,2.1,0,210.1,2.94,233.19,256.77a5.7,5.7,0,0,1-4.92,6.18,5.6,5.6,0,0,1-6.4-4.65c-13.27-73.89-80.19-127.51-159.13-127.51-48.4,0-93.38,20.18-124.22,55.57L329.93,412a5.72,5.72,0,0,1-4,9.76ZM11.43,410.37H312.09L205.5,303.78a5.72,5.72,0,0,1-.39-7.66c33.08-40.49,82.8-63.71,136.41-63.71,63.91,0,120.47,33,150.41,83.35C448.3,127.15,286.26,124.51,278.79,124.5c-65.21,0-127.13,27-169.89,74.19a5.71,5.71,0,0,1-4.09,1.88,5,5,0,0,1-4.19-1.68L11.43,109.71Z"/></svg>